<svg width="2604" height="993" xmlns="http://www.w3.org/2000/svg" xmlns:xlink="http://www.w3.org/1999/xlink" xml:space="preserve" overflow="hidden"><defs><clipPath id="clip0"><rect x="1630" y="1395" width="2604" height="993"/></clipPath></defs><g clip-path="url(#clip0)" transform="translate(-1630 -1395)"><rect x="1631" y="1396" width="2601" height="990" fill="#FFFFFF"/><g><path d="M1816.5 2076.57 4181.5 2076.57M1816.5 1971.56 4181.5 1971.56M1816.5 1866.56 4181.5 1866.56M1816.5 1761.56 4181.5 1761.56M1816.5 1656.55 4181.5 1656.55M1816.5 1551.55 4181.5 1551.55M1816.5 1446.5 4181.5 1446.5" stroke="#D9D9D9" stroke-width="3.4375" stroke-linejoin="round" stroke-miterlimit="10" fill="none"/></g><g><path d="M1884.06 1586.05 1946.06 1586.05 1946.06 2182 1884.06 2182ZM2082.07 2012.07 2143.07 2012.07 2143.07 2182 2082.07 2182ZM2279.07 1909.06 2340.08 1909.06 2340.08 2182 2279.07 2182ZM2476.08 1698.06 2537.08 1698.06 2537.08 2182 2476.08 2182ZM2673.09 1821.06 2735.09 1821.06 2735.09 2182 2673.09 2182ZM2870.09 1559.05 2932.1 1559.05 2932.1 2182 2870.09 2182ZM3067.1 1940.06 3129.1 1940.06 3129.1 2182 3067.1 2182ZM3264.11 1667.05 3326.11 1667.05 3326.11 2182 3264.11 2182ZM3461.11 2021.07 3523.12 2021.07 3523.12 2182 3461.11 2182ZM3658.12 2052.07 3720.12 2052.07 3720.12 2182 3658.12 2182ZM3855.13 1912.06 3917.13 1912.06 3917.13 2182 3855.13 2182ZM4052.13 1757.06 4114.14 1757.06 4114.14 2182 4052.13 2182Z" fill="#4472C4"/></g><g><path d="M1915.56 1585.55 1915.56 1604.5M1915.56 1585.55 1915.56 1566.5M1905.5 1604.5 1925.5 1604.5M1905.5 1566.5 1925.5 1566.5" stroke="#595959" stroke-width="3.4375" stroke-linejoin="round" stroke-miterlimit="10" fill="none"/></g><g><path d="M2112.57 2011.57 2112.57 2030.5M2112.57 2011.57 2112.57 1993.5M2102.5 2030.5 2122.5 2030.5M2102.5 1993.5 2122.5 1993.5" stroke="#595959" stroke-width="3.4375" stroke-linejoin="round" stroke-miterlimit="10" fill="none"/></g><g><path d="M2309.58 1908.56 2309.58 1927.5M2309.58 1908.56 2309.58 1890.5M2299.5 1927.5 2319.5 1927.5M2299.5 1890.5 2319.5 1890.5" stroke="#595959" stroke-width="3.4375" stroke-linejoin="round" stroke-miterlimit="10" fill="none"/></g><g><path d="M2506.58 1698.56 2506.58 1717.5M2506.58 1698.56 2506.58 1679.5M2496.5 1717.5 2516.5 1717.5M2496.5 1679.5 2516.5 1679.5" stroke="#595959" stroke-width="3.4375" stroke-linejoin="round" stroke-miterlimit="10" fill="none"/></g><g><path d="M2703.59 1821.56 2703.59 1840.5M2703.59 1821.56 2703.59 1802.5M2693.5 1840.5 2714.5 1840.5M2693.5 1802.5 2714.5 1802.5" stroke="#595959" stroke-width="3.4375" stroke-linejoin="round" stroke-miterlimit="10" fill="none"/></g><g><path d="M2900.6 1559.55 2900.6 1578.5M2900.6 1559.55 2900.6 1540.5M2890.5 1578.5 2911.5 1578.5M2890.5 1540.5 2911.5 1540.5" stroke="#595959" stroke-width="3.4375" stroke-linejoin="round" stroke-miterlimit="10" fill="none"/></g><g><path d="M3097.6 1940.56 3097.6 1959.5M3097.6 1940.56 3097.6 1921.5M3087.5 1959.5 3108.5 1959.5M3087.5 1921.5 3108.5 1921.5" stroke="#595959" stroke-width="3.4375" stroke-linejoin="round" stroke-miterlimit="10" fill="none"/></g><g><path d="M3294.61 1666.55 3294.61 1685.5M3294.61 1666.55 3294.61 1647.5M3284.5 1685.5 3305.5 1685.5M3284.5 1647.5 3305.5 1647.5" stroke="#595959" stroke-width="3.4375" stroke-linejoin="round" stroke-miterlimit="10" fill="none"/></g><g><path d="M3491.61 2020.57 3491.61 2039.5M3491.61 2020.57 3491.61 2001.5M3481.5 2039.5 3502.5 2039.5M3481.5 2001.5 3502.5 2001.5" stroke="#595959" stroke-width="3.4375" stroke-linejoin="round" stroke-miterlimit="10" fill="none"/></g><g><path d="M3689.62 2051.57 3689.62 2070.5M3689.62 2051.57 3689.62 2032.5M3678.5 2070.5 3699.5 2070.5M3678.5 2032.5 3699.5 2032.5" stroke="#595959" stroke-width="3.4375" stroke-linejoin="round" stroke-miterlimit="10" fill="none"/></g><g><path d="M3886.63 1911.56 3886.63 1930.5M3886.63 1911.56 3886.63 1892.5M3875.5 1930.5 3896.5 1930.5M3875.5 1892.5 3896.5 1892.5" stroke="#595959" stroke-width="3.4375" stroke-linejoin="round" stroke-miterlimit="10" fill="none"/></g><g><path d="M4083.63 1757.56 4083.63 1776.5M4083.63 1757.56 4083.63 1738.5M4072.5 1776.5 4093.5 1776.5M4072.5 1738.5 4093.5 1738.5" stroke="#595959" stroke-width="3.4375" stroke-linejoin="round" stroke-miterlimit="10" fill="none"/></g><g><path d="M1816.5 2182.5 4181.5 2182.5" stroke="#D9D9D9" stroke-width="3.4375" stroke-linejoin="round" stroke-miterlimit="10" fill="none" fill-rule="evenodd"/></g><g><text fill="#595959" font-family="Calibri,Calibri_MSFontService,sans-serif" font-weight="400" font-size="41" transform="matrix(1 0 0 1 1757.73 2194)">0</text></g><g><text fill="#595959" font-family="Calibri,Calibri_MSFontService,sans-serif" font-weight="400" font-size="41" transform="matrix(1 0 0 1 1757.73 2089)">1</text></g><g><text fill="#595959" font-family="Calibri,Calibri_MSFontService,sans-serif" font-weight="400" font-size="41" transform="matrix(1 0 0 1 1757.73 1983)">2</text></g><g><text fill="#595959" font-family="Calibri,Calibri_MSFontService,sans-serif" font-weight="400" font-size="41" transform="matrix(1 0 0 1 1757.73 1878)">3</text></g><g><text fill="#595959" font-family="Calibri,Calibri_MSFontService,sans-serif" font-weight="400" font-size="41" transform="matrix(1 0 0 1 1757.73 1773)">4</text></g><g><text fill="#595959" font-family="Calibri,Calibri_MSFontService,sans-serif" font-weight="400" font-size="41" transform="matrix(1 0 0 1 1757.73 1668)">5</text></g><g><text fill="#595959" font-family="Calibri,Calibri_MSFontService,sans-serif" font-weight="400" font-size="41" transform="matrix(1 0 0 1 1757.73 1563)">6</text></g><g><text fill="#595959" font-family="Calibri,Calibri_MSFontService,sans-serif" font-weight="400" font-size="41" transform="matrix(1 0 0 1 1757.73 1458)">7</text></g><g><text fill="#595959" font-family="Calibri,Calibri_MSFontService,sans-serif" font-weight="400" font-size="41" transform="matrix(1 0 0 1 1904.99 2247)">1</text></g><g><text fill="#595959" font-family="Calibri,Calibri_MSFontService,sans-serif" font-weight="400" font-size="41" transform="matrix(1 0 0 1 2102.07 2247)">2</text></g><g><text fill="#595959" font-family="Calibri,Calibri_MSFontService,sans-serif" font-weight="400" font-size="41" transform="matrix(1 0 0 1 2299.14 2247)">3</text></g><g><text fill="#595959" font-family="Calibri,Calibri_MSFontService,sans-serif" font-weight="400" font-size="41" transform="matrix(1 0 0 1 2496.22 2247)">4</text></g><g><text fill="#595959" font-family="Calibri,Calibri_MSFontService,sans-serif" font-weight="400" font-size="41" transform="matrix(1 0 0 1 2693.3 2247)">5</text></g><g><text fill="#595959" font-family="Calibri,Calibri_MSFontService,sans-serif" font-weight="400" font-size="41" transform="matrix(1 0 0 1 2890.38 2247)">6</text></g><g><text fill="#595959" font-family="Calibri,Calibri_MSFontService,sans-serif" font-weight="400" font-size="41" transform="matrix(1 0 0 1 3087.45 2247)">7</text></g><g><text fill="#595959" font-family="Calibri,Calibri_MSFontService,sans-serif" font-weight="400" font-size="41" transform="matrix(1 0 0 1 3284.53 2247)">8</text></g><g><text fill="#595959" font-family="Calibri,Calibri_MSFontService,sans-serif" font-weight="400" font-size="41" transform="matrix(1 0 0 1 3481.61 2247)">9</text></g><g><text fill="#595959" font-family="Calibri,Calibri_MSFontService,sans-serif" font-weight="400" font-size="41" transform="matrix(1 0 0 1 3668.24 2247)">10</text></g><g><text fill="#595959" font-family="Calibri,Calibri_MSFontService,sans-serif" font-weight="400" font-size="41" transform="matrix(1 0 0 1 3865.32 2247)">11</text></g><g><text fill="#595959" font-family="Calibri,Calibri_MSFontService,sans-serif" font-weight="400" font-size="41" transform="matrix(1 0 0 1 4062.39 2247)">12</text></g><g><text fill="#595959" font-family="Calibri,Calibri_MSFontService,sans-serif" font-weight="400" font-size="46" transform="matrix(6.12323e-17 -1 1 6.12323e-17 1732.04 2004)">Inhomogeneity (mT)</text></g><g><text fill="#595959" font-family="Calibri,Calibri_MSFontService,sans-serif" font-weight="400" font-size="46" transform="matrix(1 0 0 1 2847.89 2316)">Magnet number</text></g><rect x="1631.5" y="1396.5" width="2601" height="990" stroke="#D9D9D9" stroke-width="3.4375" stroke-linejoin="round" stroke-miterlimit="10" fill="none"/></g></svg>